<svg width="2500" height="2500" viewBox="0 0 2500 2500" fill="none" xmlns="http://www.w3.org/2000/svg">
<path d="M1180.81 16.2443C976.256 26.2716 788.946 82.8255 617.68 185.906C521.82 243.663 407.91 338.721 332.104 422.951C103.883 678.044 0.000320287 971.643 16.044 1317.38C25.6701 1525.55 81.4218 1710.85 186.107 1884.93C309.643 2089.88 517.408 2278.8 726.376 2375.86C890.823 2452.47 1054.47 2486.96 1251 2486.96C1509.71 2486.96 1726.7 2423.59 1926.84 2289.63C2049.98 2207.4 2155.86 2106.33 2248.12 1984C2420.99 1753.77 2500 1488.65 2485.96 1185.02C2477.94 1013.76 2442.24 868.563 2372.05 722.967C2282.61 537.262 2151.85 379.633 1980.19 251.685C1794.08 112.105 1569.07 29.4803 1345.26 17.8487C1254.61 13.4367 1239.77 13.0356 1180.81 16.2443ZM884.807 781.526C950.987 797.971 1008.74 832.464 1059.28 885.408C1133.88 963.621 1175.2 1063.49 1190.44 1199.86C1192.84 1221.52 1194.85 1249.6 1194.85 1263.24V1287.3H503.771L506.177 1332.22C513.397 1464.98 581.181 1554.83 700.305 1588.92C741.617 1600.95 829.858 1601.76 869.967 1590.93C947.377 1570.07 1013.56 1509.51 1024.79 1449.34L1027.19 1435.71H1179.61L1176.4 1448.54C1153.54 1554.43 1086.56 1639.86 987.486 1690C918.098 1724.89 809.402 1740.13 714.744 1728.5C618.483 1716.47 543.88 1681.98 480.507 1620.21C415.129 1556.03 378.63 1483.03 355.367 1369.53C343.735 1310.97 342.532 1183.02 353.361 1132.48C380.235 1008.54 446.415 903.458 536.259 842.492C585.192 809.201 652.575 782.328 707.525 773.905C747.634 767.889 847.104 771.9 884.807 781.526ZM1571.47 936.347C1634.04 1027.8 1686.59 1102.8 1688.59 1102.8C1690.2 1102.8 1744.34 1028.6 1808.92 937.951C1873.5 847.305 1928.04 772.301 1930.45 771.499C1932.86 770.696 1976.18 770.295 2026.31 770.696L2117.76 771.9L1958.53 984.478C1871.09 1101.2 1796.89 1201.07 1793.68 1205.88C1788.06 1214.3 1796.49 1226.74 1969.76 1468.59C2070.03 1608.17 2153.46 1724.89 2155.06 1727.3C2157.47 1731.31 2136.61 1732.51 2056.39 1732.51L1954.92 1732.11L1822.96 1535.98C1750.76 1427.68 1690.2 1339.44 1688.59 1339.44C1686.99 1339.44 1626.02 1427.68 1553.43 1535.98L1421.47 1732.11L1326.41 1732.51C1273.87 1732.51 1230.95 1731.71 1230.95 1730.91C1230.95 1729.7 1311.17 1616.6 1409.43 1479.02C1507.7 1341.45 1587.12 1227.14 1586.32 1224.73C1585.11 1221.92 1511.31 1120.45 1421.87 998.516C1332.42 876.584 1259.02 775.51 1259.02 773.504C1259.02 771.499 1302.74 769.894 1358.5 769.894H1457.56L1571.47 936.347Z" fill="white"/>
<path d="M729.585 906.265C671.025 913.886 627.707 935.545 584.791 978.461C559.522 1002.93 551.099 1015.36 535.858 1046.65C518.611 1082.34 504.974 1129.67 504.974 1152.53V1162.96H1030.4V1149.73C1030.4 1126.06 1015.16 1075.53 998.316 1043.04C959.41 968.033 888.818 918.298 804.188 906.666C770.496 901.853 762.474 901.853 729.585 906.265Z" fill="white"/>
</svg>
